<?xml version="1.0" encoding="UTF-8"?>
<svg id="_图层_2" data-name="图层 2" xmlns="http://www.w3.org/2000/svg" viewBox="0 0 356.61 76.14">
  <defs>
    <style>
      .cls-1 {
        fill: #aa9aff;
      }

      .cls-1, .cls-2, .cls-3, .cls-4, .cls-5, .cls-6, .cls-7 {
        stroke-width: 0px;
      }

      .cls-2 {
        fill: #7347ff;
      }

      .cls-3 {
        fill: #1c54e3;
      }

      .cls-4 {
        fill: #0423da;
      }

      .cls-5 {
        fill: #00cec9;
      }

      .cls-6 {
        fill: #00ead1;
      }

      .cls-7 {
        fill: #0a0a0a;
      }
    </style>
  </defs>
  <g id="_图层_1-2" data-name="图层 1">
    <g>
      <g>
        <polygon class="cls-3" points="16.93 28.29 16.93 47.84 16.93 47.84 33.86 38.06 33.86 38.06 16.93 28.29"/>
        <path class="cls-1" d="M64.71,16.77s-.02-.02-.03-.02l-13.88-8.02L16.93,28.29l16.93,9.78,30.78-17.77.05-.03c.61-.35,1.02-1,1.02-1.75s-.4-1.39-1-1.74Z"/>
        <path class="cls-6" d="M65.71,39.54c-.37,0-.71.1-1,.27,0,0-.02,0-.03.01,0,0,0,0,0,0l-13.88,8.02h0l16.02,9.25h.02c.56-.96.89-2.09.89-3.3,0-.02,0-.03,0-.05,0-.01,0-.03,0-.04v-12.14c0-1.11-.9-2.02-2.02-2.02Z"/>
        <path class="cls-5" d="M66.82,57.09l-16.02-9.25-33.86,19.55h0s13.55,7.82,13.55,7.82h0s.05.02.07.04c.98.57,2.11.89,3.32.89s2.34-.33,3.32-.89c.02-.01.05-.02.07-.04h0s27.09-15.64,27.09-15.64c.01,0,.02-.01.03-.02,1.02-.58,1.87-1.43,2.46-2.45h-.02Z"/>
        <path class="cls-6" d="M33.86,38.06h0s-16.93,9.78-16.93,9.78l-4.58,2.64L.91,57.09h-.02c.55.96,1.32,1.76,2.25,2.34l.25.14s0,0,0,0l.05.03.06.04,13.43,7.75h0s0,0,0,0h0s33.86-19.55,33.86-19.55h0l-16.93-9.78Z"/>
        <path class="cls-2" d="M37.25.91c-.32-.19-.66-.34-1-.47-.06-.02-.12-.05-.18-.07-.03-.01-.06-.02-.1-.03-.66-.22-1.38-.35-2.12-.35s-1.45.12-2.12.35c-.03.01-.06.02-.1.03-.06.02-.12.04-.18.07-.34.13-.67.28-1,.47h0L3.39,16.56s-.01,0-.02.01c-1.03.58-1.88,1.43-2.48,2.45h.02s16.02,9.26,16.02,9.26h0S50.8,8.74,50.8,8.74L37.25.91Z"/>
        <path class="cls-4" d="M.91,19.03h-.02c-.56.96-.89,2.09-.89,3.3v31.46c0,1.2.32,2.33.89,3.31h.02s16.02-9.26,16.02-9.26h0v-19.55h0S.91,19.03.91,19.03Z"/>
      </g>
      <path class="cls-7" d="M91.27,62.5V15.55h16.57v4.46c-.28,5.38-1.49,9.84-3.61,13.38,2.55,3.12,3.82,6.8,3.82,11.05.14,7.22-3.05,10.76-9.56,10.62v-5.1c3.12,0,4.67-2.05,4.67-6.16.14-3.82-1.2-7.15-4.04-9.98,2.12-4.11,3.19-8.71,3.19-13.81h-5.31v42.49h-5.74ZM109.76,20.86v-4.46h29.32v4.46h-3.4v34.84c.14,4.11-2.12,6.16-6.8,6.16h-4.89v-4.46h2.76c1.98.14,2.9-.64,2.76-2.34V20.86h-19.76ZM110.61,52.09v-26.56h15.3v19.97c.14,4.53-2.05,6.73-6.59,6.59h-8.71ZM115.7,47.84h2.34c1.84,0,2.76-.92,2.76-2.76v-15.3h-5.1v18.06ZM147.78,40.83V15.55h41.21v17.63c0,5.24-2.41,7.79-7.22,7.65h-9.77v4.89h18.06v4.67h-18.06v5.74h20.82v4.04h-48.86v-4.04h20.82v-5.74h-18.06v-4.67h18.06v-4.89h-17ZM154.16,36.37h10.62v-5.95h-10.62v5.95ZM179.44,36.37c2.12,0,3.19-1.06,3.19-3.19v-2.76h-10.62v5.95h7.44ZM154.16,20.01v5.95h10.62v-5.95h-10.62ZM182.62,20.01h-10.62v5.95h10.62v-5.95ZM198.34,35.95v-4.67h48.86v4.67h-25.71c-3.12,6.94-7.29,12.75-12.53,17.42,10.62,0,19.54-.42,26.77-1.27-.99-2.55-2.2-5.17-3.61-7.86h5.95c2.97,4.82,5.31,10.27,7.01,16.36h-6.59c0-.28-.07-.64-.21-1.06-.28-.71-.57-1.63-.85-2.76-11.19,1.13-21.67,1.7-31.44,1.7h-4.04v-5.1c5.1-5.52,8.78-11.33,11.05-17.42h-14.66ZM202.81,21.07v-4.89h39.94v4.89h-39.94ZM252.94,20.86v-4.67h48.44v4.67h-21.03c-.14,2.12-.57,4.04-1.27,5.74h18.06v26.77c.14,4.96-2.48,7.36-7.86,7.22h-31.87V26.6h14.23c.28-.85.64-2.2,1.06-4.04,0-.71.07-1.27.21-1.7h-19.97ZM263.78,56.34h23.79c2.12.14,3.19-.99,3.19-3.4v-7.01h-26.98v10.41ZM263.78,31.27v9.98h26.98v-9.98h-26.98ZM325.17,21.71v-4.25h7.65c.14-.43.28-1.06.42-1.91.28-.85.42-1.49.42-1.91h6.59c-.28,1.27-.64,2.55-1.06,3.82h16.15v4.25h-17.42c-.42,1.7-.99,3.33-1.7,4.89h8.07v9.56h10.62v4.46h-10.62v14.45c.14,4.67-2.2,6.94-7.01,6.8h-4.89v-4.46h2.55c2.12.14,3.12-.71,2.97-2.55v-14.23h-12.11v-4.46c.28-.57.64-1.35,1.06-2.34.71-1.27,1.2-2.27,1.49-2.97h-3.4v-2.97c-1.7.42-3.4.71-5.1.85.14,9.49,1.98,16.71,5.52,21.67v3.61c2.27-2.69,3.75-6.44,4.46-11.26h5.52c-.71,8.07-4.46,13.67-11.26,16.78v-4.04l.21-.42c-3.12-2.55-5.45-5.59-7.01-9.14-1.84,6.51-5.38,11.9-10.62,16.15v-5.1c2.83-4.39,4.74-8.64,5.74-12.75.99-4.25,1.49-10.06,1.49-17.42v-12.96h5.95v10.2c1.42-.14,3.12-.57,5.1-1.27v3.82h5.1c.28-.57.57-1.42.85-2.55.42-.99.71-1.77.85-2.34h-6.59ZM356.61,59.53c-6.37-3.26-9.91-8.85-10.62-16.78h5.31c.57,5.24,2.34,9.49,5.31,12.75v4.04ZM308.39,36.16c-.85-4.39-1.42-9.21-1.7-14.45h4.25c.14,5.24.85,10.06,2.12,14.45h-4.67ZM334.31,30.85c-.28.42-.57.99-.85,1.7-.42.71-1.13,1.91-2.12,3.61h6.59v-5.31h-3.61Z"/>
    </g>
  </g>
</svg>